<mxfile host="app.diagrams.net" modified="2024-02-02T09:46:26.078Z" agent="Mozilla/5.0 (Windows NT 10.0; Win64; x64; rv:122.0) Gecko/20100101 Firefox/122.0" etag="0_Y0tXOP0nb2XvpDU8m-" version="23.1.0" type="github">
  <diagram name="Pagina-1" id="myhdDUZBAsLJSN-BoU5Z">
    <mxGraphModel dx="1481" dy="747" grid="1" gridSize="10" guides="1" tooltips="1" connect="1" arrows="1" fold="1" page="1" pageScale="1" pageWidth="827" pageHeight="1169" math="0" shadow="0">
      <root>
        <mxCell id="0" />
        <mxCell id="1" parent="0" />
        <mxCell id="PNyKitEE_Tm-IeRPap9B-21" style="edgeStyle=orthogonalEdgeStyle;rounded=0;orthogonalLoop=1;jettySize=auto;html=1;entryX=0;entryY=0.5;entryDx=0;entryDy=0;" edge="1" parent="1" target="PNyKitEE_Tm-IeRPap9B-17">
          <mxGeometry relative="1" as="geometry">
            <mxPoint x="239.99999999999977" y="220" as="sourcePoint" />
          </mxGeometry>
        </mxCell>
        <mxCell id="PNyKitEE_Tm-IeRPap9B-2" value="The accountant sits behind his worksation" style="rounded=0;whiteSpace=wrap;html=1;" vertex="1" parent="1">
          <mxGeometry x="200" y="200" width="120" height="40" as="geometry" />
        </mxCell>
        <mxCell id="PNyKitEE_Tm-IeRPap9B-3" style="edgeStyle=orthogonalEdgeStyle;rounded=0;orthogonalLoop=1;jettySize=auto;html=1;entryX=0;entryY=0.5;entryDx=0;entryDy=0;" edge="1" parent="1" source="PNyKitEE_Tm-IeRPap9B-4" target="PNyKitEE_Tm-IeRPap9B-6">
          <mxGeometry relative="1" as="geometry" />
        </mxCell>
        <mxCell id="PNyKitEE_Tm-IeRPap9B-4" value="The website collects the data of the day" style="rounded=0;whiteSpace=wrap;html=1;" vertex="1" parent="1">
          <mxGeometry x="200" y="80" width="120" height="40" as="geometry" />
        </mxCell>
        <mxCell id="PNyKitEE_Tm-IeRPap9B-5" style="edgeStyle=orthogonalEdgeStyle;rounded=0;orthogonalLoop=1;jettySize=auto;html=1;entryX=0;entryY=0.5;entryDx=0;entryDy=0;" edge="1" parent="1" source="PNyKitEE_Tm-IeRPap9B-6" target="PNyKitEE_Tm-IeRPap9B-7">
          <mxGeometry relative="1" as="geometry" />
        </mxCell>
        <mxCell id="PNyKitEE_Tm-IeRPap9B-6" value="The website send an email with the collected data" style="rounded=0;whiteSpace=wrap;html=1;" vertex="1" parent="1">
          <mxGeometry x="360" y="80" width="160" height="40" as="geometry" />
        </mxCell>
        <mxCell id="PNyKitEE_Tm-IeRPap9B-9" style="edgeStyle=orthogonalEdgeStyle;rounded=0;orthogonalLoop=1;jettySize=auto;html=1;exitX=1;exitY=0.5;exitDx=0;exitDy=0;entryX=0;entryY=0.5;entryDx=0;entryDy=0;" edge="1" parent="1" source="PNyKitEE_Tm-IeRPap9B-7" target="PNyKitEE_Tm-IeRPap9B-8">
          <mxGeometry relative="1" as="geometry" />
        </mxCell>
        <mxCell id="PNyKitEE_Tm-IeRPap9B-7" value="The accountant receives the email" style="rounded=0;whiteSpace=wrap;html=1;" vertex="1" parent="1">
          <mxGeometry x="560" y="140" width="120" height="40" as="geometry" />
        </mxCell>
        <mxCell id="PNyKitEE_Tm-IeRPap9B-19" style="edgeStyle=orthogonalEdgeStyle;rounded=0;orthogonalLoop=1;jettySize=auto;html=1;entryX=0;entryY=0.5;entryDx=0;entryDy=0;" edge="1" parent="1" source="PNyKitEE_Tm-IeRPap9B-8" target="PNyKitEE_Tm-IeRPap9B-17">
          <mxGeometry relative="1" as="geometry" />
        </mxCell>
        <mxCell id="PNyKitEE_Tm-IeRPap9B-8" value="The accountant processes the data" style="rounded=0;whiteSpace=wrap;html=1;" vertex="1" parent="1">
          <mxGeometry x="720" y="140" width="120" height="40" as="geometry" />
        </mxCell>
        <mxCell id="PNyKitEE_Tm-IeRPap9B-11" value="" style="endArrow=none;dashed=1;html=1;rounded=0;" edge="1" parent="1">
          <mxGeometry width="50" height="50" relative="1" as="geometry">
            <mxPoint x="40" y="130" as="sourcePoint" />
            <mxPoint x="1120" y="130" as="targetPoint" />
          </mxGeometry>
        </mxCell>
        <mxCell id="PNyKitEE_Tm-IeRPap9B-13" value="&lt;font size=&quot;1&quot;&gt;&lt;b&gt;Local computer&lt;br&gt;&lt;/b&gt;&lt;/font&gt;" style="text;html=1;strokeColor=none;fillColor=none;align=left;verticalAlign=middle;whiteSpace=wrap;rounded=0;" vertex="1" parent="1">
          <mxGeometry x="40" y="145" width="120" height="30" as="geometry" />
        </mxCell>
        <mxCell id="PNyKitEE_Tm-IeRPap9B-14" value="&lt;font size=&quot;1&quot;&gt;&lt;b&gt;Cineco Cinema Website&lt;br&gt;&lt;/b&gt;&lt;/font&gt;" style="text;html=1;strokeColor=none;fillColor=none;align=left;verticalAlign=middle;whiteSpace=wrap;rounded=0;" vertex="1" parent="1">
          <mxGeometry x="40" y="85" width="140" height="30" as="geometry" />
        </mxCell>
        <mxCell id="PNyKitEE_Tm-IeRPap9B-15" value="" style="endArrow=none;dashed=1;html=1;rounded=0;" edge="1" parent="1">
          <mxGeometry width="50" height="50" relative="1" as="geometry">
            <mxPoint x="40" y="190" as="sourcePoint" />
            <mxPoint x="1120" y="190" as="targetPoint" />
          </mxGeometry>
        </mxCell>
        <mxCell id="PNyKitEE_Tm-IeRPap9B-16" value="&lt;font size=&quot;1&quot;&gt;&lt;b&gt;Phisical workspace&lt;br&gt;&lt;/b&gt;&lt;/font&gt;" style="text;html=1;strokeColor=none;fillColor=none;align=left;verticalAlign=middle;whiteSpace=wrap;rounded=0;" vertex="1" parent="1">
          <mxGeometry x="40" y="205" width="120" height="30" as="geometry" />
        </mxCell>
        <mxCell id="PNyKitEE_Tm-IeRPap9B-20" style="edgeStyle=orthogonalEdgeStyle;rounded=0;orthogonalLoop=1;jettySize=auto;html=1;entryX=0;entryY=0.5;entryDx=0;entryDy=0;" edge="1" parent="1" source="PNyKitEE_Tm-IeRPap9B-17" target="PNyKitEE_Tm-IeRPap9B-18">
          <mxGeometry relative="1" as="geometry" />
        </mxCell>
        <mxCell id="PNyKitEE_Tm-IeRPap9B-17" value="The accountant closes his workstation" style="rounded=0;whiteSpace=wrap;html=1;" vertex="1" parent="1">
          <mxGeometry x="880" y="200" width="120" height="40" as="geometry" />
        </mxCell>
        <mxCell id="PNyKitEE_Tm-IeRPap9B-18" value="End of day" style="rounded=0;whiteSpace=wrap;html=1;" vertex="1" parent="1">
          <mxGeometry x="1040" y="200" width="80" height="40" as="geometry" />
        </mxCell>
        <mxCell id="PNyKitEE_Tm-IeRPap9B-22" value="&lt;b&gt;&lt;font style=&quot;font-size: 14px;&quot;&gt;Use case 3&lt;/font&gt;&lt;/b&gt;" style="text;html=1;strokeColor=none;fillColor=none;align=left;verticalAlign=middle;whiteSpace=wrap;rounded=0;" vertex="1" parent="1">
          <mxGeometry x="40" y="40" width="120" height="30" as="geometry" />
        </mxCell>
      </root>
    </mxGraphModel>
  </diagram>
</mxfile>
